<svg width="16" height="16" viewBox="0 0 16 16" fill="none" xmlns="http://www.w3.org/2000/svg">
<path d="M12.2566 1.93524H3.22547C2.51293 1.93524 1.9353 2.51287 1.9353 3.22541V12.2566C1.9353 12.9691 2.51293 13.5467 3.22547 13.5467H12.2566C12.9692 13.5467 13.5468 12.9691 13.5468 12.2566V3.22541C13.5468 2.51287 12.9692 1.93524 12.2566 1.93524Z" stroke="#F25221" stroke-width="1.29017" stroke-linecap="round" stroke-linejoin="round"/>
<path d="M5.48325 6.45081C6.01765 6.45081 6.45087 6.01759 6.45087 5.48319C6.45087 4.94878 6.01765 4.51556 5.48325 4.51556C4.94885 4.51556 4.51562 4.94878 4.51562 5.48319C4.51562 6.01759 4.94885 6.45081 5.48325 6.45081Z" stroke="#F25221" stroke-width="1.29017" stroke-linecap="round" stroke-linejoin="round"/>
<path d="M13.5468 9.67622L10.3214 6.45081L3.22546 13.5467" stroke="#F25221" stroke-width="1.29017" stroke-linecap="round" stroke-linejoin="round"/>
</svg>
