<svg width="16" height="16" viewBox="0 0 16 16" fill="none" xmlns="http://www.w3.org/2000/svg">
<path d="M6 2H3.33333C2.97971 2 2.64057 2.14048 2.39052 2.39052C2.14048 2.64057 2 2.97971 2 3.33333V12.6667C2 13.0203 2.14048 13.3594 2.39052 13.6095C2.64057 13.8595 2.97971 14 3.33333 14H6C6 14 11.5 14 12 14C12.5 14 13 14 13 13.5C13 13 13 12 13 12V10" stroke="white" stroke-width="1.33333" stroke-linecap="round" stroke-linejoin="round"/>
<path d="M12 8.66667L15.3333 5.33333L12 2" stroke="white" stroke-width="1.33333" stroke-linecap="round" stroke-linejoin="round"/>
<path d="M15 5C15 5 13.1844 5.41161 12 5.5C11.0264 5.57266 10.5 5.5 9.5 5.5C8.5 5.5 7.77149 5.37063 7 6C6.32336 6.552 6 8 6 8" stroke="white" stroke-width="1.33333" stroke-linecap="round" stroke-linejoin="round"/>
</svg>
