<svg width="100" height="64" viewBox="0 0 100 64" fill="none" xmlns="http://www.w3.org/2000/svg">
<path d="M46.7714 37.1706L24.1648 24.7802V12.3901L46.7714 24.7802V37.1706Z" fill="url(#paint0_linear_25_23)"/>
<path d="M46.7714 0L24.1648 12.3901V24.7802L46.7714 12.3901V0Z" fill="#F25221"/>
<path d="M52.5175 0L75.1241 12.3904V24.7805L52.5175 12.3904V0Z" fill="url(#paint1_linear_25_23)"/>
<path d="M52.5175 37.1705L75.1241 24.7805V12.3904L52.5175 24.7805V37.1705Z" fill="#F25221"/>
<path d="M81.4053 52.3023C84.1321 52.3023 85.4496 54.4469 85.4496 55.9482H77.2385C77.6368 53.4665 79.3832 52.3023 81.4053 52.3023ZM82.0794 61.5856C79.2606 61.5856 77.5449 60.1457 77.2079 57.909H87.8087C87.9006 52.8537 85.2351 50.2495 81.4053 50.2495C78.0045 50.2495 74.9406 52.8537 74.9406 57.2044C74.9406 61.1874 78.2189 63.5771 82.0794 63.5771C84.3159 63.5771 85.664 62.9031 86.8896 62.1678V60.115C85.664 60.8503 84.5304 61.5856 82.0794 61.5856ZM69.3669 53.0376C68.6315 51.5057 66.7626 50.2189 64.7711 50.2189C60.6043 50.2189 58.2452 53.3746 58.2452 57.0512C58.2452 60.6971 60.5737 63.5465 64.5873 63.5465C66.5788 63.5465 68.6009 62.2903 69.3669 60.7584V63.0869H71.5728V39.955L69.3669 40.6904V53.0376ZM64.9243 61.5244C62.3813 61.5244 60.5124 59.5635 60.5124 56.898C60.5124 54.1712 62.3813 52.241 64.9243 52.241C67.4979 52.241 69.3669 54.1712 69.3669 56.898C69.3669 59.5635 67.4979 61.5244 64.9243 61.5244ZM52.6527 58.3993C52.6527 60.2988 50.8757 61.6776 49.0681 61.6776C46.7702 61.6776 45.4527 60.2376 45.4527 58.3993V50.4027L43.2468 51.138V58.675C43.2468 61.2793 45.2383 63.5771 48.1489 63.5771C50.2323 63.5771 51.9481 62.3823 52.6527 61.1567V63.0869H54.8587V50.4027L52.6527 51.138V58.3993ZM36.7242 63.0869H38.9301V39.955L36.7242 40.6904V63.0869ZM29.7702 61.5856C27.166 61.5856 25.1745 59.5023 25.1745 56.9286C25.1745 54.3244 27.166 52.2716 29.7702 52.2716C32.16 52.2716 33.3243 53.5278 33.3243 53.5278V51.2912C32.0987 50.5252 30.8119 50.2495 29.7702 50.2495C26.1243 50.2495 22.9992 53.252 22.9992 56.9286C22.9992 60.5746 26.1243 63.5771 29.7702 63.5771C30.8119 63.5771 32.0987 63.332 33.3243 62.5354V60.3601C33.3243 60.3601 32.16 61.5856 29.7702 61.5856ZM10.2067 52.6393V50.372L8.00079 51.1074V63.0869H10.2067V55.458C10.2067 53.5278 11.9838 52.1491 13.7914 52.1491C16.0586 52.1491 17.4067 53.6197 17.4067 55.458V63.0869H19.6127V55.1516C19.6127 52.5474 17.5906 50.2495 14.6799 50.2495C12.6272 50.2495 10.9114 51.4444 10.2067 52.6393ZM0.422594 63.0869H2.81238V40.9048L0.422594 41.6401V63.0869ZM39.3528 39.3684L36.3015 40.3856V63.5095H36.7243H39.3528V39.3684ZM71.9957 39.3684L68.9441 40.3856V51.6751C67.9392 50.5676 66.4087 49.7963 64.771 49.7963C62.5809 49.7963 60.8184 50.6393 59.6299 51.9753C58.4414 53.3114 57.8224 55.1223 57.8224 57.051C57.8224 58.964 58.4358 60.6977 59.6012 61.9537C60.7665 63.2096 62.4805 63.9692 64.5874 63.9692C66.249 63.9692 67.8826 63.1996 68.9441 62.0699V63.5095H71.9957V39.3684ZM3.23519 40.3324L0 41.3278V63.5095H0.42273H3.23519V40.3324ZM38.5073 40.5415V62.6641H37.147V40.9949L38.5073 40.5415ZM71.1502 40.5415V62.6641H69.7896V60.7585L68.9887 60.5692C68.3145 61.9177 66.4011 63.1238 64.5874 63.1238C62.6806 63.1238 61.2234 62.4586 60.221 61.3784C59.2188 60.2982 58.6679 58.784 58.6679 57.051C58.6679 55.3031 59.2286 53.6984 60.2613 52.5374C61.2941 51.3764 62.7943 50.6417 64.771 50.6417C66.5804 50.6417 68.3314 51.8571 68.9857 53.2204L69.7896 53.0374V40.9949L71.1502 40.5415ZM2.38974 41.4771V62.6641H0.845456V41.9523L2.38974 41.4771ZM10.6293 49.7857L7.57808 50.8026V63.5095H10.6293V55.4579C10.6293 53.7871 12.1988 52.5717 13.7915 52.5717C15.876 52.5717 16.9841 53.8262 16.9841 55.4579V63.5095H20.0354V55.1517C20.0354 52.3286 17.8131 49.8267 14.6799 49.8267C13.0212 49.8267 11.582 50.527 10.6293 51.4439V49.7857ZM45.8753 49.8161L42.8241 50.8333V58.6749C42.8241 61.4947 45.0157 64 48.1488 64C49.8276 64 51.2749 63.2991 52.2301 62.3689V63.5096H55.2814V49.8161L52.2301 50.8333V58.3992C52.2301 60.0351 50.6607 61.2549 49.0679 61.2549C48.0073 61.2549 47.2203 60.9289 46.6908 60.4223C46.1612 59.9158 45.8753 59.2173 45.8753 58.3992V49.8161ZM29.7704 49.8266C25.8923 49.8266 22.5764 53.0123 22.5764 56.9284C22.5764 60.8159 25.8923 63.9999 29.7704 63.9999C30.8784 63.9999 32.2491 63.7386 33.5548 62.8899L33.747 62.7647V59.3013L33.0178 60.0688C33.0178 60.0688 32.7866 60.3181 32.2486 60.5976C31.7106 60.877 30.893 61.163 29.7704 61.163C27.3916 61.163 25.5972 59.284 25.5972 56.9284C25.5972 54.5397 27.3882 52.6942 29.7704 52.6942C30.8912 52.6942 31.7071 52.9866 32.2447 53.2728C32.7822 53.559 33.0141 53.8151 33.0142 53.8151L33.747 54.6057V51.0568L33.5482 50.9326C32.2485 50.1203 30.8867 49.8266 29.7704 49.8266ZM81.4054 49.8266C77.7887 49.8266 74.5179 52.6551 74.5179 57.2042C74.5179 59.3116 75.4006 61.0389 76.7904 62.2079C78.1802 63.377 80.062 63.9999 82.0794 63.9999C84.401 63.9999 85.8619 63.2773 87.1069 62.5302L87.3124 62.4071V59.3684L86.672 59.7524C85.4385 60.4926 84.446 61.163 82.0794 61.163C80.7421 61.163 79.708 60.8235 78.9724 60.2521C78.3593 59.7759 77.9527 59.1263 77.7405 58.3317H88.2239L88.2315 57.9165C88.2788 55.3133 87.6139 53.2835 86.3946 51.9036C85.1754 50.5237 83.4161 49.8266 81.4054 49.8266ZM14.6799 50.672C17.3681 50.672 19.1899 52.7662 19.1899 55.1516V62.664H17.8296V55.4578C17.8296 53.4128 16.2416 51.7262 13.7915 51.7262C11.7689 51.7262 9.78386 53.2681 9.78386 55.4578V62.664H8.42353V51.4118L9.78386 50.9583V54.1883L10.5709 52.854C11.1857 51.8115 12.7912 50.672 14.6799 50.672ZM29.7704 50.672C30.6822 50.672 31.8104 50.9158 32.9015 51.5452V52.6972C32.8069 52.6373 32.755 52.5866 32.6419 52.5264C31.9999 52.1845 31.0393 51.8487 29.7704 51.8487C26.944 51.8487 24.7518 54.1086 24.7518 56.9284C24.7518 59.7201 26.9407 62.0084 29.7704 62.0084C31.0375 62.0084 31.9967 61.6812 32.6383 61.3479C32.7529 61.2883 32.8058 61.238 32.9015 61.1788V62.2845C31.8146 62.9344 30.6916 63.1544 29.7704 63.1544C26.3565 63.1544 23.4218 60.3328 23.4218 56.9284C23.4218 53.4914 26.3565 50.672 29.7704 50.672ZM81.4054 50.672C83.2245 50.672 84.7129 51.2773 85.7608 52.4633C86.7455 53.5777 87.3319 55.2563 87.3649 57.4862H76.7167L76.7897 57.972C76.972 59.1816 77.5424 60.2122 78.4536 60.9199C79.3647 61.6276 80.5981 62.0084 82.0795 62.0084C84.1846 62.0084 85.4112 61.4546 86.4669 60.8492V61.9199C85.3222 62.5915 84.1117 63.1544 82.0795 63.1544C80.2365 63.1544 78.5488 62.5825 77.3343 61.5609C76.1199 60.5393 75.3633 59.0797 75.3633 57.2042C75.3633 53.052 78.2204 50.672 81.4054 50.672ZM45.0299 50.9891V58.3991C45.0299 59.4192 45.4029 60.3601 46.1065 61.0332C46.8101 61.7062 47.8307 62.1002 49.0679 62.1002C51.0906 62.1002 53.0756 60.5623 53.0756 58.3991V51.4425L54.4359 50.9891V62.664H53.0756V59.5734L52.2863 60.946C51.6702 62.0174 50.0706 63.1544 48.1488 63.1544C45.4607 63.1544 43.6696 61.0636 43.6696 58.6748V51.4425L45.0299 50.9891ZM64.9242 51.818C62.1674 51.818 60.0896 53.9781 60.0896 56.898C60.0896 59.7612 62.164 61.947 64.9242 61.947C67.7126 61.947 69.7896 59.7612 69.7896 56.898C69.7896 53.9781 67.7092 51.818 64.9242 51.818ZM81.4054 51.8795C79.221 51.8795 77.2467 53.229 76.8211 55.8812L76.7425 56.371H85.8725V55.9482C85.8725 55.074 85.5036 54.0781 84.7601 53.2751C84.0166 52.4722 82.8796 51.8795 81.4054 51.8795ZM64.9242 52.6635C67.2865 52.6635 68.9441 54.3644 68.9441 56.8981C68.9441 59.366 67.2831 61.1016 64.9242 61.1016C62.5986 61.1016 60.9351 59.366 60.9351 56.8981C60.9351 54.3644 62.5952 52.6635 64.9242 52.6635ZM81.4054 52.725C82.658 52.725 83.543 53.2048 84.1399 53.8495C84.6112 54.3584 84.8837 54.9774 84.9808 55.5255H77.7722C78.2719 53.5753 79.6869 52.725 81.4054 52.725Z" fill="black"/>
<path d="M90.3635 50.4104C89.9789 50.4104 89.6583 50.3263 89.4019 50.158C89.1455 49.9897 88.9572 49.7894 88.837 49.557C88.7168 49.3326 88.6567 49.1363 88.6567 48.968C88.6567 48.7757 88.7328 48.5994 88.8851 48.4391C89.0373 48.2789 89.2096 48.1667 89.4019 48.1026L89.5101 48.0785C89.5341 48.0785 89.5502 48.0865 89.5582 48.1026C89.5662 48.1266 89.5702 48.1587 89.5702 48.1987C89.6183 48.6475 89.7184 49.0161 89.8707 49.3046C90.0229 49.6011 90.3194 49.7493 90.7602 49.7493C91.0567 49.7493 91.3051 49.6611 91.5054 49.4848C91.7057 49.3086 91.874 49.0201 92.0102 48.6194C92.1465 48.2268 92.2707 47.6859 92.3829 46.9967L93.4166 40.4338H93.3565C93.1962 40.4338 92.9839 40.4058 92.7194 40.3497C92.3188 40.2775 92.0103 40.2415 91.7939 40.2415C91.4173 40.2415 91.1368 40.2936 90.9525 40.3977C90.7682 40.4939 90.5919 40.6301 90.4236 40.8064C90.3755 40.8625 90.3315 40.9066 90.2914 40.9386C90.2593 40.9707 90.2273 40.9867 90.1952 40.9867C90.1391 40.9867 90.1111 40.9587 90.1111 40.9026L90.1231 40.7704C90.1952 40.3457 90.3916 40.0331 90.7121 39.8328C91.0406 39.6325 91.5054 39.5323 92.1064 39.5323C92.3628 39.5323 92.6313 39.5523 92.9117 39.5924C92.9678 39.6004 93.08 39.6124 93.2483 39.6285C93.4246 39.6445 93.6049 39.6525 93.7892 39.6525C93.9575 39.6525 94.0897 39.6445 94.1859 39.6285C94.29 39.6124 94.4062 39.5804 94.5344 39.5323C94.4142 39.8769 94.3341 40.1694 94.294 40.4098C94.262 40.6422 94.242 40.7944 94.2339 40.8665L93.4046 46.2635C93.1962 47.6017 92.8276 48.6274 92.2987 49.3406C91.7698 50.0538 91.1248 50.4104 90.3635 50.4104Z" fill="black"/>
<path d="M95.2863 47.9944C95.2542 47.9944 95.2262 47.9864 95.2022 47.9703C95.1861 47.9623 95.1781 47.9503 95.1781 47.9343C95.1781 47.9102 95.2022 47.8582 95.2502 47.778C95.2983 47.6979 95.3344 47.5857 95.3584 47.4415C95.3905 47.2732 95.4185 47.1209 95.4426 46.9847C95.4666 46.8405 95.4906 46.7082 95.5147 46.588C95.715 45.4902 95.8472 44.7249 95.9113 44.2922C95.9835 43.8515 96.0155 43.531 96.0075 43.3306C96.0075 43.2264 95.9995 43.1503 95.9835 43.1023C95.9675 43.0542 95.9314 43.0301 95.8753 43.0301C95.8032 43.0301 95.711 43.0902 95.5988 43.2104C95.4867 43.3306 95.3825 43.4709 95.2863 43.6311C95.2463 43.7032 95.2102 43.7674 95.1781 43.8235C95.1461 43.8715 95.118 43.9076 95.094 43.9316C95.078 43.9557 95.0579 43.9677 95.0339 43.9677C95.0018 43.9677 94.9778 43.9557 94.9618 43.9316C94.9458 43.9076 94.9377 43.8755 94.9377 43.8355C94.9377 43.6832 95.0219 43.4709 95.1902 43.1984C95.3665 42.926 95.5708 42.6856 95.8032 42.4772C96.0436 42.2609 96.2559 42.1527 96.4402 42.1527C96.5925 42.1527 96.6967 42.2128 96.7528 42.333C96.8169 42.4532 96.8489 42.6415 96.8489 42.8979C96.8489 43.2505 96.7728 43.7273 96.6205 44.3283H96.6446C97.4058 42.8779 98.111 42.1527 98.7601 42.1527C98.9284 42.1527 99.0566 42.2008 99.1447 42.2969C99.2409 42.3851 99.289 42.5133 99.289 42.6816C99.289 42.8579 99.2489 43.0382 99.1688 43.2225C99.0967 43.4068 99.0045 43.559 98.8923 43.6792C98.7881 43.7994 98.692 43.8595 98.6038 43.8595C98.5477 43.8595 98.5277 43.8235 98.5437 43.7513C98.5678 43.6392 98.5798 43.551 98.5798 43.4869C98.5798 43.2946 98.4756 43.1984 98.2673 43.1984C98.0189 43.1984 97.7705 43.3427 97.522 43.6311C97.2736 43.9196 97.0533 44.2722 96.8609 44.6889C96.6766 45.1056 96.5484 45.4862 96.4763 45.8308C96.3801 46.1994 96.32 46.5841 96.296 46.9847C96.28 47.137 96.2079 47.2932 96.0796 47.4535C95.9594 47.6058 95.8192 47.734 95.6589 47.8381C95.4987 47.9423 95.3744 47.9944 95.2863 47.9944Z" fill="black"/>
<defs>
<linearGradient id="paint0_linear_25_23" x1="45.1552" y1="31.6727" x2="29.8538" y2="22.1174" gradientUnits="userSpaceOnUse">
<stop stop-color="#F25221"/>
<stop offset="1" stop-color="#9F3410"/>
</linearGradient>
<linearGradient id="paint1_linear_25_23" x1="54.1337" y1="5.49787" x2="69.4351" y2="15.0532" gradientUnits="userSpaceOnUse">
<stop stop-color="#F25221"/>
<stop offset="1" stop-color="#9F3410"/>
</linearGradient>
</defs>
</svg>
